# xmcd
#
# Track frame offsets:
#	150
#	19009
#	34084
#	49834
#	63929
#	79679
#	95452
#	109027
#	123578
#	142928
#	157666
#	173904
#
# Disc length: 2578 seconds
# Revision: 0
# Processed by: cddbd v1.5.2PL0 Copyright (c) Steve Scherf et al.
# Submitted via: dBpowerAMP V12.0
#
DISCID=8e0a100c
DTITLE=Various Artist - The Mad Mile
DYEAR=2010
DGENRE=
TTITLE0=Kirsten Jones - You Ain't Comin' By
TTITLE1=Kirsten Jones with Gary Louris - I Don't Wanna Live Like This
TTITLE2=Kirsten Jones - There's A Right Way To Break My Heart
TTITLE3=Kirsten Jones - I Will Love You Now
TTITLE4=Kirsten Jones - Losing Something
TTITLE5=Kirsten Jones - The Mad Mile
TTITLE6=Kirsten Jones - Save Your Love
TTITLE7=Kirsten Jones with Jim Cuddy - Hold Me Closer
TTITLE8=Kirsten Jones - Extra Days
TTITLE9=Kirsten Jones - Thoughtful Man
TTITLE10=Kirsten Jones - Maybe I'm The One
TTITLE11=Kirsten Jones with Oh Susanna - Bittersweet Grand Canyon
EXTD=
EXTT0=
EXTT1=
EXTT2=
EXTT3=
EXTT4=
EXTT5=
EXTT6=
EXTT7=
EXTT8=
EXTT9=
EXTT10=
EXTT11=
PLAYORDER=
